<svg width="859" height="859" viewBox="0 0 859 859" fill="none" xmlns="http://www.w3.org/2000/svg">
<path d="M58.1429 1H1V58.1429H58.1429V1Z" stroke="currentColor" stroke-width="1.25"/>
<path d="M115.287 1H58.1445V58.1429H115.287V1Z" stroke="currentColor" stroke-width="1.25"/>
<path d="M172.428 1H115.285V58.1429H172.428V1Z" stroke="currentColor" stroke-width="1.25"/>
<path d="M229.573 1H172.43V58.1429H229.573V1Z" stroke="currentColor" stroke-width="1.25"/>
<path d="M286.713 1H229.57V58.1429H286.713V1Z" stroke="currentColor" stroke-width="1.25"/>
<path d="M343.858 1H286.715V58.1429H343.858V1Z" stroke="currentColor" stroke-width="1.25"/>
<path d="M400.998 1H343.855V58.1429H400.998V1Z" stroke="currentColor" stroke-width="1.25"/>
<path d="M458.143 1H401V58.1429H458.143V1Z" stroke="currentColor" stroke-width="1.25"/>
<path d="M515.287 1H458.145V58.1429H515.287V1Z" stroke="currentColor" stroke-width="1.25"/>
<path d="M572.428 1H515.285V58.1429H572.428V1Z" stroke="currentColor" stroke-width="1.25"/>
<path d="M629.573 1H572.43V58.1429H629.573V1Z" stroke="currentColor" stroke-width="1.25"/>
<path d="M686.713 1H629.57V58.1429H686.713V1Z" stroke="currentColor" stroke-width="1.25"/>
<path d="M743.858 1H686.715V58.1429H743.858V1Z" stroke="currentColor" stroke-width="1.25"/>
<path d="M800.998 1H743.855V58.1429H800.998V1Z" stroke="currentColor" stroke-width="1.25"/>
<path d="M858.143 1H801V58.1429H858.143V1Z" stroke="currentColor" stroke-width="1.25"/>
<path d="M58.1429 58.1406H1V115.283H58.1429V58.1406Z" stroke="currentColor" stroke-width="1.25"/>
<path d="M115.287 58.1406H58.1445V115.283H115.287V58.1406Z" stroke="currentColor" stroke-width="1.25"/>
<path d="M172.428 58.1406H115.285V115.283H172.428V58.1406Z" stroke="currentColor" stroke-width="1.25"/>
<path d="M229.573 58.1406H172.43V115.283H229.573V58.1406Z" stroke="currentColor" stroke-width="1.25"/>
<path d="M286.713 58.1406H229.57V115.283H286.713V58.1406Z" stroke="currentColor" stroke-width="1.25"/>
<path d="M343.858 58.1406H286.715V115.283H343.858V58.1406Z" stroke="currentColor" stroke-width="1.25"/>
<path d="M400.998 58.1406H343.855V115.283H400.998V58.1406Z" stroke="currentColor" stroke-width="1.25"/>
<path d="M458.143 58.1406H401V115.283H458.143V58.1406Z" stroke="currentColor" stroke-width="1.25"/>
<path d="M515.287 58.1406H458.145V115.283H515.287V58.1406Z" stroke="currentColor" stroke-width="1.25"/>
<path d="M572.428 58.1406H515.285V115.283H572.428V58.1406Z" stroke="currentColor" stroke-width="1.25"/>
<path d="M629.573 58.1406H572.43V115.283H629.573V58.1406Z" stroke="currentColor" stroke-width="1.25"/>
<path d="M686.713 58.1406H629.57V115.283H686.713V58.1406Z" stroke="currentColor" stroke-width="1.25"/>
<path d="M743.858 58.1406H686.715V115.283H743.858V58.1406Z" stroke="currentColor" stroke-width="1.25"/>
<path d="M800.998 58.1406H743.855V115.283H800.998V58.1406Z" stroke="currentColor" stroke-width="1.25"/>
<path d="M858.143 58.1406H801V115.283H858.143V58.1406Z" stroke="currentColor" stroke-width="1.25"/>
<path d="M58.1429 115.289H1V172.432H58.1429V115.289Z" stroke="currentColor" stroke-width="1.25"/>
<path d="M115.287 115.289H58.1445V172.432H115.287V115.289Z" stroke="currentColor" stroke-width="1.25"/>
<path d="M172.428 115.289H115.285V172.432H172.428V115.289Z" stroke="currentColor" stroke-width="1.25"/>
<path d="M229.573 115.289H172.43V172.432H229.573V115.289Z" stroke="currentColor" stroke-width="1.25"/>
<path d="M286.713 115.289H229.57V172.432H286.713V115.289Z" stroke="currentColor" stroke-width="1.25"/>
<path d="M343.858 115.289H286.715V172.432H343.858V115.289Z" stroke="currentColor" stroke-width="1.25"/>
<path d="M400.998 115.289H343.855V172.432H400.998V115.289Z" stroke="currentColor" stroke-width="1.25"/>
<path d="M458.143 115.289H401V172.432H458.143V115.289Z" stroke="currentColor" stroke-width="1.25"/>
<path d="M515.287 115.289H458.145V172.432H515.287V115.289Z" stroke="currentColor" stroke-width="1.25"/>
<path d="M572.428 115.289H515.285V172.432H572.428V115.289Z" stroke="currentColor" stroke-width="1.25"/>
<path d="M629.573 115.289H572.43V172.432H629.573V115.289Z" stroke="currentColor" stroke-width="1.25"/>
<path d="M686.713 115.289H629.57V172.432H686.713V115.289Z" stroke="currentColor" stroke-width="1.25"/>
<path d="M743.858 115.289H686.715V172.432H743.858V115.289Z" stroke="currentColor" stroke-width="1.25"/>
<path d="M800.998 115.289H743.855V172.432H800.998V115.289Z" stroke="currentColor" stroke-width="1.25"/>
<path d="M858.143 115.289H801V172.432H858.143V115.289Z" stroke="currentColor" stroke-width="1.25"/>
<path d="M58.1429 172.43H1V229.573H58.1429V172.43Z" stroke="currentColor" stroke-width="1.25"/>
<path d="M115.287 172.43H58.1445V229.573H115.287V172.43Z" stroke="currentColor" stroke-width="1.25"/>
<path d="M172.428 172.43H115.285V229.573H172.428V172.43Z" stroke="currentColor" stroke-width="1.25"/>
<path d="M229.573 172.43H172.43V229.573H229.573V172.43Z" stroke="currentColor" stroke-width="1.25"/>
<path d="M286.713 172.43H229.57V229.573H286.713V172.43Z" stroke="currentColor" stroke-width="1.25"/>
<path d="M343.858 172.43H286.715V229.573H343.858V172.43Z" stroke="currentColor" stroke-width="1.25"/>
<path d="M400.998 172.43H343.855V229.573H400.998V172.43Z" stroke="currentColor" stroke-width="1.25"/>
<path d="M458.143 172.43H401V229.573H458.143V172.43Z" stroke="currentColor" stroke-width="1.25"/>
<path d="M515.287 172.43H458.145V229.573H515.287V172.43Z" stroke="currentColor" stroke-width="1.25"/>
<path d="M572.428 172.43H515.285V229.573H572.428V172.43Z" stroke="currentColor" stroke-width="1.25"/>
<path d="M629.573 172.43H572.43V229.573H629.573V172.43Z" stroke="currentColor" stroke-width="1.25"/>
<path d="M686.713 172.43H629.57V229.573H686.713V172.43Z" stroke="currentColor" stroke-width="1.25"/>
<path d="M743.858 172.43H686.715V229.573H743.858V172.43Z" stroke="currentColor" stroke-width="1.25"/>
<path d="M800.998 172.43H743.855V229.573H800.998V172.43Z" stroke="currentColor" stroke-width="1.25"/>
<path d="M858.143 172.43H801V229.573H858.143V172.43Z" stroke="currentColor" stroke-width="1.25"/>
<path d="M58.1429 229.57H1V286.713H58.1429V229.57Z" stroke="currentColor" stroke-width="1.25"/>
<path d="M115.287 229.57H58.1445V286.713H115.287V229.57Z" stroke="currentColor" stroke-width="1.25"/>
<path d="M172.428 229.57H115.285V286.713H172.428V229.57Z" stroke="currentColor" stroke-width="1.25"/>
<path d="M229.573 229.57H172.43V286.713H229.573V229.57Z" stroke="currentColor" stroke-width="1.25"/>
<path d="M286.713 229.57H229.57V286.713H286.713V229.57Z" stroke="currentColor" stroke-width="1.25"/>
<path d="M343.858 229.57H286.715V286.713H343.858V229.57Z" stroke="currentColor" stroke-width="1.25"/>
<path d="M400.998 229.57H343.855V286.713H400.998V229.57Z" stroke="currentColor" stroke-width="1.25"/>
<path d="M458.143 229.57H401V286.713H458.143V229.57Z" stroke="currentColor" stroke-width="1.25"/>
<path d="M515.287 229.57H458.145V286.713H515.287V229.57Z" stroke="currentColor" stroke-width="1.25"/>
<path d="M572.428 229.57H515.285V286.713H572.428V229.57Z" stroke="currentColor" stroke-width="1.25"/>
<path d="M629.573 229.57H572.43V286.713H629.573V229.57Z" stroke="currentColor" stroke-width="1.25"/>
<path d="M686.713 229.57H629.57V286.713H686.713V229.57Z" stroke="currentColor" stroke-width="1.25"/>
<path d="M743.858 229.57H686.715V286.713H743.858V229.57Z" stroke="currentColor" stroke-width="1.25"/>
<path d="M800.998 229.57H743.855V286.713H800.998V229.57Z" stroke="currentColor" stroke-width="1.25"/>
<path d="M858.143 229.57H801V286.713H858.143V229.57Z" stroke="currentColor" stroke-width="1.25"/>
<path d="M58.1429 286.711H1V343.854H58.1429V286.711Z" stroke="currentColor" stroke-width="1.25"/>
<path d="M115.287 286.711H58.1445V343.854H115.287V286.711Z" stroke="currentColor" stroke-width="1.25"/>
<path d="M172.428 286.711H115.285V343.854H172.428V286.711Z" stroke="currentColor" stroke-width="1.25"/>
<path d="M229.573 286.711H172.43V343.854H229.573V286.711Z" stroke="currentColor" stroke-width="1.25"/>
<path d="M286.713 286.711H229.57V343.854H286.713V286.711Z" stroke="currentColor" stroke-width="1.25"/>
<path d="M343.858 286.711H286.715V343.854H343.858V286.711Z" stroke="currentColor" stroke-width="1.25"/>
<path d="M400.998 286.711H343.855V343.854H400.998V286.711Z" stroke="currentColor" stroke-width="1.25"/>
<path d="M458.143 286.711H401V343.854H458.143V286.711Z" stroke="currentColor" stroke-width="1.25"/>
<path d="M515.287 286.711H458.145V343.854H515.287V286.711Z" stroke="currentColor" stroke-width="1.25"/>
<path d="M572.428 286.711H515.285V343.854H572.428V286.711Z" stroke="currentColor" stroke-width="1.25"/>
<path d="M629.573 286.711H572.43V343.854H629.573V286.711Z" stroke="currentColor" stroke-width="1.25"/>
<path d="M686.713 286.711H629.57V343.854H686.713V286.711Z" stroke="currentColor" stroke-width="1.25"/>
<path d="M743.858 286.711H686.715V343.854H743.858V286.711Z" stroke="currentColor" stroke-width="1.25"/>
<path d="M800.998 286.711H743.855V343.854H800.998V286.711Z" stroke="currentColor" stroke-width="1.25"/>
<path d="M858.143 286.711H801V343.854H858.143V286.711Z" stroke="currentColor" stroke-width="1.25"/>
<path d="M58.1429 343.859H1V401.002H58.1429V343.859Z" stroke="currentColor" stroke-width="1.25"/>
<path d="M115.287 343.859H58.1445V401.002H115.287V343.859Z" stroke="currentColor" stroke-width="1.25"/>
<path d="M172.428 343.859H115.285V401.002H172.428V343.859Z" stroke="currentColor" stroke-width="1.25"/>
<path d="M229.573 343.859H172.43V401.002H229.573V343.859Z" stroke="currentColor" stroke-width="1.25"/>
<path d="M286.713 343.859H229.57V401.002H286.713V343.859Z" stroke="currentColor" stroke-width="1.25"/>
<path d="M343.858 343.859H286.715V401.002H343.858V343.859Z" stroke="currentColor" stroke-width="1.25"/>
<path d="M400.998 343.859H343.855V401.002H400.998V343.859Z" stroke="currentColor" stroke-width="1.25"/>
<path d="M458.143 343.859H401V401.002H458.143V343.859Z" stroke="currentColor" stroke-width="1.25"/>
<path d="M515.287 343.859H458.145V401.002H515.287V343.859Z" stroke="currentColor" stroke-width="1.25"/>
<path d="M572.428 343.859H515.285V401.002H572.428V343.859Z" stroke="currentColor" stroke-width="1.25"/>
<path d="M629.573 343.859H572.43V401.002H629.573V343.859Z" stroke="currentColor" stroke-width="1.25"/>
<path d="M686.713 343.859H629.57V401.002H686.713V343.859Z" stroke="currentColor" stroke-width="1.25"/>
<path d="M743.858 343.859H686.715V401.002H743.858V343.859Z" stroke="currentColor" stroke-width="1.25"/>
<path d="M800.998 343.859H743.855V401.002H800.998V343.859Z" stroke="currentColor" stroke-width="1.25"/>
<path d="M858.143 343.859H801V401.002H858.143V343.859Z" stroke="currentColor" stroke-width="1.25"/>
<path d="M58.1429 401H1V458.143H58.1429V401Z" stroke="currentColor" stroke-width="1.25"/>
<path d="M115.287 401H58.1445V458.143H115.287V401Z" stroke="currentColor" stroke-width="1.25"/>
<path d="M172.428 401H115.285V458.143H172.428V401Z" stroke="currentColor" stroke-width="1.25"/>
<path d="M229.573 401H172.43V458.143H229.573V401Z" stroke="currentColor" stroke-width="1.25"/>
<path d="M286.713 401H229.57V458.143H286.713V401Z" stroke="currentColor" stroke-width="1.25"/>
<path d="M343.858 401H286.715V458.143H343.858V401Z" stroke="currentColor" stroke-width="1.25"/>
<path d="M400.998 401H343.855V458.143H400.998V401Z" stroke="currentColor" stroke-width="1.25"/>
<path d="M458.143 401H401V458.143H458.143V401Z" stroke="currentColor" stroke-width="1.25"/>
<path d="M515.287 401H458.145V458.143H515.287V401Z" stroke="currentColor" stroke-width="1.25"/>
<path d="M572.428 401H515.285V458.143H572.428V401Z" stroke="currentColor" stroke-width="1.25"/>
<path d="M629.573 401H572.43V458.143H629.573V401Z" stroke="currentColor" stroke-width="1.25"/>
<path d="M686.713 401H629.57V458.143H686.713V401Z" stroke="currentColor" stroke-width="1.25"/>
<path d="M743.858 401H686.715V458.143H743.858V401Z" stroke="currentColor" stroke-width="1.25"/>
<path d="M800.998 401H743.855V458.143H800.998V401Z" stroke="currentColor" stroke-width="1.25"/>
<path d="M858.143 401H801V458.143H858.143V401Z" stroke="currentColor" stroke-width="1.25"/>
<path d="M58.1429 458.141H1V515.283H58.1429V458.141Z" stroke="currentColor" stroke-width="1.25"/>
<path d="M115.287 458.141H58.1445V515.283H115.287V458.141Z" stroke="currentColor" stroke-width="1.25"/>
<path d="M172.428 458.141H115.285V515.283H172.428V458.141Z" stroke="currentColor" stroke-width="1.25"/>
<path d="M229.573 458.141H172.43V515.283H229.573V458.141Z" stroke="currentColor" stroke-width="1.25"/>
<path d="M286.713 458.141H229.57V515.283H286.713V458.141Z" stroke="currentColor" stroke-width="1.25"/>
<path d="M343.858 458.141H286.715V515.283H343.858V458.141Z" stroke="currentColor" stroke-width="1.25"/>
<path d="M400.998 458.141H343.855V515.283H400.998V458.141Z" stroke="currentColor" stroke-width="1.25"/>
<path d="M458.143 458.141H401V515.283H458.143V458.141Z" stroke="currentColor" stroke-width="1.25"/>
<path d="M515.287 458.141H458.145V515.283H515.287V458.141Z" stroke="currentColor" stroke-width="1.25"/>
<path d="M572.428 458.141H515.285V515.283H572.428V458.141Z" stroke="currentColor" stroke-width="1.25"/>
<path d="M629.573 458.141H572.43V515.283H629.573V458.141Z" stroke="currentColor" stroke-width="1.25"/>
<path d="M686.713 458.141H629.57V515.283H686.713V458.141Z" stroke="currentColor" stroke-width="1.25"/>
<path d="M743.858 458.141H686.715V515.283H743.858V458.141Z" stroke="currentColor" stroke-width="1.25"/>
<path d="M800.998 458.141H743.855V515.283H800.998V458.141Z" stroke="currentColor" stroke-width="1.25"/>
<path d="M858.143 458.141H801V515.283H858.143V458.141Z" stroke="currentColor" stroke-width="1.25"/>
<path d="M58.1429 515.289H1V572.432H58.1429V515.289Z" stroke="currentColor" stroke-width="1.25"/>
<path d="M115.287 515.289H58.1445V572.432H115.287V515.289Z" stroke="currentColor" stroke-width="1.25"/>
<path d="M172.428 515.289H115.285V572.432H172.428V515.289Z" stroke="currentColor" stroke-width="1.25"/>
<path d="M229.573 515.289H172.43V572.432H229.573V515.289Z" stroke="currentColor" stroke-width="1.25"/>
<path d="M286.713 515.289H229.57V572.432H286.713V515.289Z" stroke="currentColor" stroke-width="1.25"/>
<path d="M343.858 515.289H286.715V572.432H343.858V515.289Z" stroke="currentColor" stroke-width="1.25"/>
<path d="M400.998 515.289H343.855V572.432H400.998V515.289Z" stroke="currentColor" stroke-width="1.25"/>
<path d="M458.143 515.289H401V572.432H458.143V515.289Z" stroke="currentColor" stroke-width="1.25"/>
<path d="M515.287 515.289H458.145V572.432H515.287V515.289Z" stroke="currentColor" stroke-width="1.25"/>
<path d="M572.428 515.289H515.285V572.432H572.428V515.289Z" stroke="currentColor" stroke-width="1.25"/>
<path d="M629.573 515.289H572.43V572.432H629.573V515.289Z" stroke="currentColor" stroke-width="1.25"/>
<path d="M686.713 515.289H629.57V572.432H686.713V515.289Z" stroke="currentColor" stroke-width="1.25"/>
<path d="M743.858 515.289H686.715V572.432H743.858V515.289Z" stroke="currentColor" stroke-width="1.25"/>
<path d="M800.998 515.289H743.855V572.432H800.998V515.289Z" stroke="currentColor" stroke-width="1.25"/>
<path d="M858.143 515.289H801V572.432H858.143V515.289Z" stroke="currentColor" stroke-width="1.25"/>
<path d="M58.1429 572.43H1V629.573H58.1429V572.43Z" stroke="currentColor" stroke-width="1.25"/>
<path d="M115.287 572.43H58.1445V629.573H115.287V572.43Z" stroke="currentColor" stroke-width="1.25"/>
<path d="M172.428 572.43H115.285V629.573H172.428V572.43Z" stroke="currentColor" stroke-width="1.25"/>
<path d="M229.573 572.43H172.43V629.573H229.573V572.43Z" stroke="currentColor" stroke-width="1.25"/>
<path d="M286.713 572.43H229.57V629.573H286.713V572.43Z" stroke="currentColor" stroke-width="1.25"/>
<path d="M343.858 572.43H286.715V629.573H343.858V572.43Z" stroke="currentColor" stroke-width="1.25"/>
<path d="M400.998 572.43H343.855V629.573H400.998V572.43Z" stroke="currentColor" stroke-width="1.25"/>
<path d="M458.143 572.43H401V629.573H458.143V572.43Z" stroke="currentColor" stroke-width="1.25"/>
<path d="M515.287 572.43H458.145V629.573H515.287V572.43Z" stroke="currentColor" stroke-width="1.25"/>
<path d="M572.428 572.43H515.285V629.573H572.428V572.43Z" stroke="currentColor" stroke-width="1.25"/>
<path d="M629.573 572.43H572.43V629.573H629.573V572.43Z" stroke="currentColor" stroke-width="1.25"/>
<path d="M686.713 572.43H629.57V629.573H686.713V572.43Z" stroke="currentColor" stroke-width="1.25"/>
<path d="M743.858 572.43H686.715V629.573H743.858V572.43Z" stroke="currentColor" stroke-width="1.25"/>
<path d="M800.998 572.43H743.855V629.573H800.998V572.43Z" stroke="currentColor" stroke-width="1.25"/>
<path d="M858.143 572.43H801V629.573H858.143V572.43Z" stroke="currentColor" stroke-width="1.25"/>
<path d="M58.1429 629.57H1V686.713H58.1429V629.57Z" stroke="currentColor" stroke-width="1.25"/>
<path d="M115.287 629.57H58.1445V686.713H115.287V629.57Z" stroke="currentColor" stroke-width="1.25"/>
<path d="M172.428 629.57H115.285V686.713H172.428V629.57Z" stroke="currentColor" stroke-width="1.25"/>
<path d="M229.573 629.57H172.43V686.713H229.573V629.57Z" stroke="currentColor" stroke-width="1.25"/>
<path d="M286.713 629.57H229.57V686.713H286.713V629.57Z" stroke="currentColor" stroke-width="1.25"/>
<path d="M343.858 629.57H286.715V686.713H343.858V629.57Z" stroke="currentColor" stroke-width="1.25"/>
<path d="M400.998 629.57H343.855V686.713H400.998V629.57Z" stroke="currentColor" stroke-width="1.25"/>
<path d="M458.143 629.57H401V686.713H458.143V629.57Z" stroke="currentColor" stroke-width="1.25"/>
<path d="M515.287 629.57H458.145V686.713H515.287V629.57Z" stroke="currentColor" stroke-width="1.25"/>
<path d="M572.428 629.57H515.285V686.713H572.428V629.57Z" stroke="currentColor" stroke-width="1.25"/>
<path d="M629.573 629.57H572.43V686.713H629.573V629.57Z" stroke="currentColor" stroke-width="1.25"/>
<path d="M686.713 629.57H629.57V686.713H686.713V629.57Z" stroke="currentColor" stroke-width="1.25"/>
<path d="M743.858 629.57H686.715V686.713H743.858V629.57Z" stroke="currentColor" stroke-width="1.25"/>
<path d="M800.998 629.57H743.855V686.713H800.998V629.57Z" stroke="currentColor" stroke-width="1.25"/>
<path d="M858.143 629.57H801V686.713H858.143V629.57Z" stroke="currentColor" stroke-width="1.25"/>
<path d="M58.1429 686.711H1V743.854H58.1429V686.711Z" stroke="currentColor" stroke-width="1.25"/>
<path d="M115.287 686.711H58.1445V743.854H115.287V686.711Z" stroke="currentColor" stroke-width="1.25"/>
<path d="M172.428 686.711H115.285V743.854H172.428V686.711Z" stroke="currentColor" stroke-width="1.25"/>
<path d="M229.573 686.711H172.43V743.854H229.573V686.711Z" stroke="currentColor" stroke-width="1.25"/>
<path d="M286.713 686.711H229.57V743.854H286.713V686.711Z" stroke="currentColor" stroke-width="1.25"/>
<path d="M343.858 686.711H286.715V743.854H343.858V686.711Z" stroke="currentColor" stroke-width="1.25"/>
<path d="M400.998 686.711H343.855V743.854H400.998V686.711Z" stroke="currentColor" stroke-width="1.25"/>
<path d="M458.143 686.711H401V743.854H458.143V686.711Z" stroke="currentColor" stroke-width="1.25"/>
<path d="M515.287 686.711H458.145V743.854H515.287V686.711Z" stroke="currentColor" stroke-width="1.25"/>
<path d="M572.428 686.711H515.285V743.854H572.428V686.711Z" stroke="currentColor" stroke-width="1.25"/>
<path d="M629.573 686.711H572.43V743.854H629.573V686.711Z" stroke="currentColor" stroke-width="1.25"/>
<path d="M686.713 686.711H629.57V743.854H686.713V686.711Z" stroke="currentColor" stroke-width="1.25"/>
<path d="M743.858 686.711H686.715V743.854H743.858V686.711Z" stroke="currentColor" stroke-width="1.25"/>
<path d="M800.998 686.711H743.855V743.854H800.998V686.711Z" stroke="currentColor" stroke-width="1.25"/>
<path d="M858.143 686.711H801V743.854H858.143V686.711Z" stroke="currentColor" stroke-width="1.25"/>
<path d="M58.1429 743.859H1V801.002H58.1429V743.859Z" stroke="currentColor" stroke-width="1.25"/>
<path d="M115.287 743.859H58.1445V801.002H115.287V743.859Z" stroke="currentColor" stroke-width="1.25"/>
<path d="M172.428 743.859H115.285V801.002H172.428V743.859Z" stroke="currentColor" stroke-width="1.25"/>
<path d="M229.573 743.859H172.43V801.002H229.573V743.859Z" stroke="currentColor" stroke-width="1.25"/>
<path d="M286.713 743.859H229.57V801.002H286.713V743.859Z" stroke="currentColor" stroke-width="1.25"/>
<path d="M343.858 743.859H286.715V801.002H343.858V743.859Z" stroke="currentColor" stroke-width="1.25"/>
<path d="M400.998 743.859H343.855V801.002H400.998V743.859Z" stroke="currentColor" stroke-width="1.25"/>
<path d="M458.143 743.859H401V801.002H458.143V743.859Z" stroke="currentColor" stroke-width="1.25"/>
<path d="M515.287 743.859H458.145V801.002H515.287V743.859Z" stroke="currentColor" stroke-width="1.25"/>
<path d="M572.428 743.859H515.285V801.002H572.428V743.859Z" stroke="currentColor" stroke-width="1.25"/>
<path d="M629.573 743.859H572.43V801.002H629.573V743.859Z" stroke="currentColor" stroke-width="1.25"/>
<path d="M686.713 743.859H629.57V801.002H686.713V743.859Z" stroke="currentColor" stroke-width="1.25"/>
<path d="M743.858 743.859H686.715V801.002H743.858V743.859Z" stroke="currentColor" stroke-width="1.25"/>
<path d="M800.998 743.859H743.855V801.002H800.998V743.859Z" stroke="currentColor" stroke-width="1.25"/>
<path d="M858.143 743.859H801V801.002H858.143V743.859Z" stroke="currentColor" stroke-width="1.25"/>
<path d="M58.1429 801H1V858.143H58.1429V801Z" stroke="currentColor" stroke-width="1.25"/>
<path d="M115.287 801H58.1445V858.143H115.287V801Z" stroke="currentColor" stroke-width="1.25"/>
<path d="M172.428 801H115.285V858.143H172.428V801Z" stroke="currentColor" stroke-width="1.25"/>
<path d="M229.573 801H172.43V858.143H229.573V801Z" stroke="currentColor" stroke-width="1.25"/>
<path d="M286.713 801H229.57V858.143H286.713V801Z" stroke="currentColor" stroke-width="1.25"/>
<path d="M343.858 801H286.715V858.143H343.858V801Z" stroke="currentColor" stroke-width="1.25"/>
<path d="M400.998 801H343.855V858.143H400.998V801Z" stroke="currentColor" stroke-width="1.25"/>
<path d="M458.143 801H401V858.143H458.143V801Z" stroke="currentColor" stroke-width="1.25"/>
<path d="M515.287 801H458.145V858.143H515.287V801Z" stroke="currentColor" stroke-width="1.25"/>
<path d="M572.428 801H515.285V858.143H572.428V801Z" stroke="currentColor" stroke-width="1.25"/>
<path d="M629.573 801H572.43V858.143H629.573V801Z" stroke="currentColor" stroke-width="1.25"/>
<path d="M686.713 801H629.57V858.143H686.713V801Z" stroke="currentColor" stroke-width="1.25"/>
<path d="M743.858 801H686.715V858.143H743.858V801Z" stroke="currentColor" stroke-width="1.25"/>
<path d="M800.998 801H743.855V858.143H800.998V801Z" stroke="currentColor" stroke-width="1.25"/>
<path d="M858.143 801H801V858.143H858.143V801Z" stroke="currentColor" stroke-width="1.25"/>
</svg>
